<?xml version="1.0" encoding="utf-8"?>
<!-- Generator: Adobe Illustrator 23.0.5, SVG Export Plug-In . SVG Version: 6.00 Build 0)  -->
<svg version="1.1" id="Layer_1" xmlns="http://www.w3.org/2000/svg" xmlns:xlink="http://www.w3.org/1999/xlink" x="0px" y="0px"
	 viewBox="0 0 46.7 11.2" style="enable-background:new 0 0 46.7 11.2;" xml:space="preserve">
<style type="text/css">
	.st0{display:none;}
	.st1{display:inline;fill:#2042E3;}
	.st2{display:inline;fill:#081828;}
	.st3{display:inline;fill:#FFFFFF;}
	.st4{fill:#3E8830;}
</style>
<title>sss</title>
<g class="st0">
	<path class="st1" d="M17.6,11.2H2.5C1.2,11.2,0,10.1,0,8.8c0,0,0,0,0,0V2.5C0,1.1,1.1,0,2.5,0c0,0,0,0,0.1,0h22l-2.7,8.2
		C21.2,10,19.5,11.2,17.6,11.2z"/>
	<path class="st2" d="M44.2,11.2h-22L24.9,3c0.6-1.8,2.3-3,4.2-3h15.1c1.4,0,2.5,1.1,2.5,2.5c0,0,0,0,0,0v6.3
		C46.7,10.2,45.6,11.2,44.2,11.2z"/>
	<path class="st3" d="M5.2,7.7C4.9,7.6,4.7,7.4,4.5,7.2L5,6.6C5.2,6.9,5.6,7.1,6,7.1c0.5,0,0.7-0.3,0.7-0.9V3.7H5.1V3h2.6v3.2
		c0,0.5-0.1,0.9-0.4,1.3C6.9,7.7,6.5,7.9,6,7.9C5.7,7.9,5.4,7.8,5.2,7.7z"/>
	<path class="st3" d="M9.4,7.6C9.1,7.5,8.9,7.2,8.7,7C8.6,6.6,8.5,6.3,8.5,6c0-0.4,0.1-0.7,0.3-1c0.2-0.3,0.4-0.5,0.7-0.7
		c0.6-0.3,1.4-0.3,2,0C11.7,4.4,12,4.7,12.1,5c0.3,0.6,0.3,1.3,0,1.9c-0.2,0.3-0.4,0.5-0.7,0.7C10.8,7.8,10.1,7.8,9.4,7.6L9.4,7.6z
		 M11.2,6.8c0.2-0.2,0.3-0.5,0.3-0.8c0-0.3-0.1-0.6-0.3-0.8c-0.2-0.2-0.5-0.3-0.8-0.3c-0.3,0-0.6,0.1-0.8,0.3C9.5,5.4,9.4,5.7,9.4,6
		c0,0.3,0.1,0.6,0.3,0.8c0.2,0.2,0.5,0.3,0.8,0.3C10.7,7.1,11,7,11.2,6.8L11.2,6.8z"/>
	<path class="st3" d="M16.1,4.3c0.3,0.2,0.5,0.4,0.7,0.7C17,5.3,17,5.7,17,6c0,0.3-0.1,0.7-0.2,1c-0.2,0.3-0.4,0.5-0.7,0.7
		c-0.3,0.2-0.6,0.2-1,0.2c-0.2,0-0.5-0.1-0.7-0.2c-0.2-0.1-0.4-0.2-0.5-0.4v0.5h-0.8V2.7H14v1.9c0.1-0.2,0.3-0.3,0.5-0.4
		c0.2-0.1,0.4-0.1,0.6-0.1C15.5,4.1,15.8,4.2,16.1,4.3z M15.9,6.8c0.2-0.2,0.3-0.5,0.3-0.8c0-0.3-0.1-0.6-0.3-0.8
		c-0.2-0.2-0.5-0.3-0.8-0.3c-0.2,0-0.4,0-0.6,0.1c-0.2,0.1-0.3,0.2-0.4,0.4c-0.2,0.4-0.2,0.8,0,1.2c0.1,0.2,0.2,0.3,0.4,0.4
		c0.2,0.1,0.4,0.1,0.6,0.1C15.4,7.1,15.7,7,15.9,6.8z"/>
	<path class="st3" d="M30.6,5.4h0.8v1.9c-0.3,0.2-0.5,0.4-0.9,0.4c-0.3,0.1-0.7,0.2-1,0.2c-0.5,0-0.9-0.1-1.3-0.3
		c-0.4-0.2-0.7-0.5-0.9-0.9C27.1,6.3,27,5.9,27,5.4c0-0.4,0.1-0.9,0.3-1.3c0.2-0.4,0.5-0.7,0.9-0.9C28.7,3.1,29.1,3,29.6,3
		C30,3,30.3,3,30.7,3.2c0.3,0.1,0.6,0.3,0.8,0.6L31,4.3c-0.3-0.4-0.8-0.6-1.3-0.5c-0.3,0-0.6,0.1-0.9,0.2c-0.3,0.1-0.5,0.3-0.6,0.6
		c-0.1,0.3-0.2,0.6-0.2,0.9c0,0.3,0.1,0.6,0.2,0.9c0.1,0.3,0.4,0.5,0.6,0.6C29,7,29.3,7.1,29.6,7.1c0.3,0,0.7-0.1,1-0.3L30.6,5.4z"
		/>
	<path class="st3" d="M34.6,4.1v0.8h-0.2c-0.3,0-0.6,0.1-0.8,0.3c-0.2,0.2-0.3,0.5-0.3,0.8v1.8h-0.9V4.2h0.8v0.6
		C33.6,4.3,34.1,4.1,34.6,4.1z"/>
	<path class="st3" d="M35.4,3.4c-0.2-0.2-0.2-0.5,0-0.7c0,0,0,0,0,0c0.1-0.1,0.2-0.2,0.4-0.2c0.1,0,0.3,0,0.4,0.1
		c0.1,0.1,0.2,0.2,0.2,0.3c0,0.1,0,0.3-0.2,0.4c-0.1,0.1-0.2,0.2-0.4,0.2C35.7,3.6,35.5,3.5,35.4,3.4z M35.4,4.2h0.8v3.6h-0.8V4.2z"
		/>
	<path class="st3" d="M40.9,2.7v5.1h-0.8V7.3c-0.1,0.2-0.3,0.3-0.5,0.4c-0.2,0.1-0.4,0.1-0.7,0.1c-0.3,0-0.7-0.1-0.9-0.2
		c-0.3-0.2-0.5-0.4-0.7-0.7C37.1,6.7,37,6.3,37,6c0-0.3,0.1-0.7,0.2-1c0.2-0.3,0.4-0.5,0.7-0.7c0.3-0.2,0.6-0.2,0.9-0.2
		c0.2,0,0.4,0,0.7,0.1c0.2,0.1,0.4,0.2,0.5,0.4V2.7H40.9z M39.5,7c0.2-0.1,0.3-0.2,0.4-0.4c0.2-0.4,0.2-0.8,0-1.2
		c-0.1-0.2-0.2-0.3-0.4-0.4c-0.3-0.2-0.8-0.2-1.1,0c-0.2,0.1-0.3,0.2-0.4,0.4c-0.2,0.4-0.2,0.8,0,1.2c0.1,0.2,0.2,0.3,0.4,0.4
		C38.8,7.2,39.2,7.2,39.5,7z"/>
	<path class="st3" d="M42.3,7.7c-0.2-0.1-0.5-0.2-0.7-0.3l0.3-0.7C42.1,6.9,42.3,7,42.5,7c0.2,0.1,0.4,0.1,0.7,0.1
		C43.7,7.1,44,7,44,6.7c0-0.1-0.1-0.2-0.2-0.3c-0.2-0.1-0.4-0.1-0.6-0.1c-0.2,0-0.5-0.1-0.7-0.2c-0.2-0.1-0.4-0.2-0.5-0.3
		c-0.1-0.2-0.2-0.4-0.2-0.6c0-0.3,0.2-0.6,0.4-0.8c0.3-0.2,0.8-0.3,1.2-0.3c0.3,0,0.5,0,0.8,0.1c0.2,0,0.4,0.1,0.6,0.2l-0.3,0.7
		c-0.3-0.2-0.6-0.3-1-0.3c-0.2,0-0.4,0-0.6,0.1c-0.1,0.1-0.2,0.2-0.2,0.3c0,0.1,0.1,0.3,0.2,0.3c0.2,0.1,0.4,0.1,0.6,0.2
		c0.2,0,0.5,0.1,0.7,0.2c0.2,0.1,0.3,0.2,0.5,0.3c0.1,0.2,0.2,0.4,0.2,0.6c0,0.3-0.2,0.6-0.4,0.8c-0.4,0.2-0.8,0.3-1.2,0.3
		C42.9,7.9,42.6,7.8,42.3,7.7z"/>
</g>
<g>
	<g>
		<g>
			<ellipse class="st4" cx="9.7" cy="0.5" rx="0.5" ry="0.5"/>
			<ellipse class="st4" cx="9.7" cy="3" rx="0.4" ry="0.5"/>
			<ellipse class="st4" cx="9.7" cy="5.6" rx="0.6" ry="0.6"/>
			<ellipse class="st4" cx="9.7" cy="10.6" rx="0.6" ry="0.6"/>
			<ellipse class="st4" cx="9.7" cy="8.1" rx="0.4" ry="0.5"/>
			<rect x="9.6" y="0.9" class="st4" width="0.2" height="9.7"/>
		</g>
		<g>
			<ellipse class="st4" cx="12" cy="1.7" rx="0.4" ry="0.4"/>
			<ellipse class="st4" cx="14.2" cy="3" rx="0.6" ry="0.6"/>
			<ellipse class="st4" cx="14.2" cy="5.6" rx="0.4" ry="0.4"/>
			<polygon class="st4" points="12.2,1.8 14.2,2.8 13.6,2.8 11.9,1.9 			"/>
			<polygon class="st4" points="14.3,3.3 14.3,5.2 14.1,5.2 14.1,3.6 			"/>
		</g>
		<g>
			<ellipse class="st4" cx="7.4" cy="1.7" rx="0.4" ry="0.4"/>
			<ellipse class="st4" cx="5.1" cy="3" rx="0.6" ry="0.6"/>
			<ellipse class="st4" cx="5.1" cy="5.6" rx="0.4" ry="0.4"/>
			<polygon class="st4" points="7.1,1.8 5.2,2.8 5.7,2.8 7.4,1.9 			"/>
			<polygon class="st4" points="5,3.3 5.1,5.2 5.3,5.1 5.3,3.6 			"/>
		</g>
		<g>
			<ellipse cx="12" cy="4.2" rx="0.5" ry="0.6"/>
			<ellipse cx="11.9" cy="6.7" rx="0.5" ry="0.7"/>
			<ellipse cx="11.9" cy="9.4" rx="0.4" ry="0.4"/>
			<ellipse cx="14.3" cy="8.1" rx="0.6" ry="0.5"/>
			<polygon points="11.8,4.4 11.9,9.4 12.1,9.4 12.1,4.1 			"/>
			<polygon points="13.9,8.1 11.8,9.3 11.9,9.6 14.1,8.3 			"/>
		</g>
		<g>
			<ellipse cx="7.3" cy="4.2" rx="0.5" ry="0.6"/>
			<ellipse cx="7.4" cy="6.7" rx="0.5" ry="0.7"/>
			<ellipse cx="7.4" cy="9.4" rx="0.4" ry="0.4"/>
			<ellipse cx="5.1" cy="8" rx="0.6" ry="0.5"/>
			<polygon points="7.5,4.4 7.5,9.4 7.2,9.4 7.2,4.1 			"/>
			<polygon points="5.5,8 7.5,9.3 7.4,9.6 5.3,8.3 			"/>
		</g>
	</g>
	<g>
		<path class="st4" d="M16.6,5.9h-0.5V3h0.5V5.9z"/>
		<path class="st4" d="M20.8,5.9h-0.5V4.2l-0.9,1.7c0,0-0.1,0.1-0.1,0.1c0,0-0.1,0-0.1,0c0,0-0.1,0-0.1,0c0,0-0.1-0.1-0.1-0.1
			l-0.9-1.7v1.8h-0.5V3.2c0-0.1,0-0.1,0.1-0.2s0.1-0.1,0.1-0.1c0,0,0.1,0,0.1,0c0,0,0.1,0,0.1,0c0,0,0.1,0,0.1,0c0,0,0,0,0.1,0.1
			L19,5.2L20.3,3c0-0.1,0.1-0.1,0.1-0.1c0.1,0,0.1,0,0.2,0c0.1,0,0.1,0,0.1,0.1s0.1,0.1,0.1,0.2V5.9z"/>
		<path class="st4" d="M24.3,5.1c0,0.1,0,0.2,0,0.3c0,0.1-0.1,0.2-0.1,0.2S24,5.7,24,5.7s-0.1,0.1-0.2,0.1c-0.1,0-0.1,0.1-0.2,0.1
			c-0.1,0-0.1,0-0.2,0h-2.1V5.4h2.1c0.1,0,0.2,0,0.2-0.1c0.1-0.1,0.1-0.1,0.1-0.2c0,0,0-0.1,0-0.1c0,0,0-0.1-0.1-0.1
			c0,0-0.1-0.1-0.1-0.1c0,0-0.1,0-0.1,0h-1.2c-0.1,0-0.2,0-0.3,0s-0.2-0.1-0.3-0.2c-0.1-0.1-0.2-0.2-0.2-0.3
			c-0.1-0.1-0.1-0.2-0.1-0.4c0-0.2,0-0.3,0.1-0.4c0.1-0.1,0.1-0.2,0.2-0.3C21.7,3.1,21.8,3,21.9,3s0.2,0,0.3,0H24v0.5h-1.8
			c-0.1,0-0.2,0-0.2,0.1c-0.1,0.1-0.1,0.1-0.1,0.2c0,0.1,0,0.2,0.1,0.2c0.1,0.1,0.1,0.1,0.2,0.1h1.2h0c0.1,0,0.1,0,0.2,0
			c0.1,0,0.1,0,0.2,0.1c0.1,0,0.1,0.1,0.2,0.1c0.1,0,0.1,0.1,0.2,0.2c0,0.1,0.1,0.1,0.1,0.2S24.3,5,24.3,5.1z"/>
		<path class="st4" d="M27.1,5.2c0,0.1,0,0.2,0,0.3c0,0.1-0.1,0.1-0.1,0.2c0,0.1-0.1,0.1-0.1,0.1c-0.1,0-0.1,0.1-0.2,0.1
			c-0.1,0-0.1,0-0.2,0.1s-0.1,0-0.2,0h-1c-0.1,0-0.2,0-0.2,0c-0.1,0-0.2-0.1-0.2-0.1c-0.1-0.1-0.1-0.1-0.2-0.2s-0.1-0.2-0.1-0.4V4.5
			c0-0.1,0-0.3,0.1-0.4s0.1-0.2,0.2-0.2c0.1-0.1,0.2-0.1,0.2-0.1c0.1,0,0.2,0,0.2,0h1c0.1,0,0.3,0,0.3,0.1S26.9,3.9,27,4
			s0.1,0.2,0.1,0.2c0,0.1,0,0.2,0,0.2V5.2z M26.6,4.5c0-0.1,0-0.1-0.1-0.2s-0.1-0.1-0.2-0.1h-1c-0.1,0-0.1,0-0.2,0.1
			c0,0-0.1,0.1-0.1,0.2v0.7c0,0.1,0,0.1,0.1,0.2c0,0,0.1,0.1,0.2,0.1h1c0.1,0,0.1,0,0.2-0.1c0,0,0.1-0.1,0.1-0.2V4.5z"/>
		<path class="st4" d="M28.6,5.9h-0.2c-0.1,0-0.2,0-0.2,0c-0.1,0-0.2-0.1-0.2-0.1c-0.1-0.1-0.1-0.1-0.2-0.2s-0.1-0.2-0.1-0.4V2.7
			h0.5v2.4c0,0.1,0,0.1,0.1,0.2c0,0,0.1,0.1,0.2,0.1h0.2V5.9z"/>
		<path class="st4" d="M31.5,5.7c0,0,0,0.1,0,0.1c0,0,0,0.1-0.1,0.1c0,0-0.1,0-0.1,0.1c0,0-0.1,0-0.1,0H30c-0.1,0-0.1,0-0.2,0
			c-0.1,0-0.1,0-0.2-0.1s-0.1-0.1-0.2-0.1s-0.1-0.1-0.2-0.2c-0.1-0.1-0.1-0.2-0.1-0.3c0-0.1,0-0.2,0-0.3V3.7h0.5v1.2
			c0,0.1,0,0.1,0,0.2c0,0.1,0.1,0.1,0.1,0.1c0,0,0.1,0.1,0.1,0.1c0.1,0,0.1,0,0.2,0h0.9V3.7h0.5V5.7z"/>
		<path class="st4" d="M34.2,5.9h-1.4c-0.1,0-0.2,0-0.2,0c-0.1,0-0.2-0.1-0.2-0.1c-0.1-0.1-0.1-0.1-0.2-0.2S32,5.3,32,5.2V4.5
			c0-0.1,0-0.1,0-0.2c0-0.1,0-0.1,0.1-0.2c0-0.1,0.1-0.1,0.1-0.2c0-0.1,0.1-0.1,0.1-0.1c0.1,0,0.1-0.1,0.2-0.1c0.1,0,0.2,0,0.2,0
			h1.4v0.5h-1.4c-0.1,0-0.1,0-0.2,0.1c0,0-0.1,0.1-0.1,0.2v0.7c0,0.1,0,0.1,0.1,0.2c0,0,0.1,0.1,0.2,0.1h1.4V5.9z"/>
		<path class="st4" d="M35.2,3.2h-0.5V2.7h0.5V3.2z M35.2,5.9h-0.5V3.7h0.5V5.9z"/>
		<path class="st4" d="M38.2,5.2c0,0.1,0,0.2,0,0.3c0,0.1-0.1,0.1-0.1,0.2c0,0.1-0.1,0.1-0.1,0.1c-0.1,0-0.1,0.1-0.2,0.1
			c-0.1,0-0.1,0-0.2,0.1c-0.1,0-0.1,0-0.2,0h-1c-0.1,0-0.2,0-0.2,0c-0.1,0-0.2-0.1-0.2-0.1c-0.1-0.1-0.1-0.1-0.2-0.2
			s-0.1-0.2-0.1-0.4V4.5c0-0.1,0-0.3,0.1-0.4s0.1-0.2,0.2-0.2c0.1-0.1,0.2-0.1,0.2-0.1c0.1,0,0.2,0,0.2,0h1c0.1,0,0.3,0,0.3,0.1
			S38,3.9,38.1,4c0.1,0.1,0.1,0.2,0.1,0.2c0,0.1,0,0.2,0,0.2V5.2z M37.7,4.5c0-0.1,0-0.1-0.1-0.2c0,0-0.1-0.1-0.2-0.1h-1
			c-0.1,0-0.1,0-0.2,0.1c0,0-0.1,0.1-0.1,0.2v0.7c0,0.1,0,0.1,0.1,0.2c0,0,0.1,0.1,0.2,0.1h1c0.1,0,0.1,0,0.2-0.1
			c0,0,0.1-0.1,0.1-0.2V4.5z"/>
		<path class="st4" d="M41.2,5.9h-0.5V4.7c0-0.1,0-0.1,0-0.2c0-0.1-0.1-0.1-0.1-0.1c0,0-0.1-0.1-0.1-0.1c-0.1,0-0.1,0-0.2,0h-0.9
			v1.7h-0.5V4c0,0,0-0.1,0-0.1s0-0.1,0.1-0.1s0.1,0,0.1-0.1c0,0,0.1,0,0.1,0h1.2c0.1,0,0.1,0,0.2,0c0.1,0,0.1,0,0.2,0.1
			c0.1,0,0.1,0.1,0.2,0.1C40.9,4,41,4,41.1,4.1c0.1,0.1,0.1,0.2,0.1,0.3s0,0.2,0,0.3V5.9z"/>
		<path class="st4" d="M44.2,4.4c0,0.1,0,0.2,0,0.2c0,0.1-0.1,0.2-0.1,0.2c-0.1,0.1-0.1,0.1-0.2,0.2c-0.1,0-0.2,0.1-0.3,0.1h-1V4.7
			h1c0.1,0,0.1,0,0.2-0.1s0.1-0.1,0.1-0.2c0-0.1,0-0.1-0.1-0.2c0,0-0.1-0.1-0.2-0.1h-1c-0.1,0-0.1,0-0.2,0.1s-0.1,0.1-0.1,0.2v0.8
			c0,0.1,0,0.1,0.1,0.2c0,0,0.1,0.1,0.2,0.1h1v0.5h-1c-0.1,0-0.2,0-0.2,0c-0.1,0-0.2-0.1-0.2-0.1c-0.1-0.1-0.1-0.1-0.2-0.2
			c0-0.1-0.1-0.2-0.1-0.3V4.4c0-0.1,0-0.2,0-0.2c0-0.1,0.1-0.2,0.1-0.2s0.1-0.1,0.2-0.2c0.1,0,0.2-0.1,0.3-0.1h1c0.1,0,0.2,0,0.2,0
			c0.1,0,0.2,0.1,0.2,0.1C44,3.9,44,4,44.1,4.1S44.2,4.3,44.2,4.4z"/>
		<path class="st4" d="M46.7,5.2c0,0.1,0,0.2,0,0.3c0,0.1-0.1,0.1-0.1,0.2c0,0.1-0.1,0.1-0.1,0.1c-0.1,0-0.1,0.1-0.2,0.1
			c-0.1,0-0.1,0-0.2,0.1c-0.1,0-0.1,0-0.2,0h-1.4V5.4H46c0.1,0,0.1,0,0.2-0.1c0,0,0.1-0.1,0.1-0.2C46.2,5,46.1,5,46,5h-0.8
			c-0.1,0-0.2,0-0.3-0.1c-0.1,0-0.1-0.1-0.2-0.2c-0.1-0.1-0.1-0.1-0.1-0.2c0-0.1,0-0.1,0-0.2c0-0.1,0-0.2,0.1-0.3
			c0-0.1,0.1-0.1,0.2-0.2c0.1-0.1,0.1-0.1,0.2-0.1s0.1,0,0.2,0h1.3v0.5h-1.3c0,0,0,0-0.1,0c0,0,0,0,0,0c0,0,0,0,0,0c0,0,0,0,0,0
			c0,0,0,0,0,0.1c0,0,0,0,0,0c0,0,0,0,0,0c0,0,0,0,0,0H46c0.1,0,0.3,0,0.3,0.1s0.2,0.1,0.2,0.2c0.1,0.1,0.1,0.2,0.1,0.2
			C46.7,5,46.7,5.1,46.7,5.2z"/>
	</g>
	<g>
		<path d="M17.4,7.8v0.8h-0.1l-0.1-0.2c-0.1,0.1-0.3,0.2-0.5,0.2c-0.2,0-0.4-0.1-0.5-0.2c-0.1-0.2-0.2-0.4-0.2-0.6
			c0-0.2,0.1-0.5,0.2-0.6c0.1-0.2,0.3-0.2,0.5-0.2c0.3,0,0.5,0.2,0.6,0.5l-0.2,0c0-0.1-0.1-0.2-0.2-0.3c-0.1-0.1-0.2-0.1-0.3-0.1
			c-0.2,0-0.3,0.1-0.4,0.2c-0.1,0.1-0.1,0.3-0.1,0.5c0,0.2,0,0.4,0.1,0.5c0.1,0.1,0.2,0.2,0.4,0.2c0.1,0,0.2,0,0.3-0.1
			c0.1-0.1,0.1-0.2,0.1-0.3c0,0,0-0.1,0-0.1h-0.4V7.8H17.4z"/>
		<path d="M18.7,8.2l0.2,0c0,0.1-0.1,0.2-0.2,0.3c-0.1,0.1-0.2,0.1-0.3,0.1c-0.2,0-0.3-0.1-0.4-0.2c-0.1-0.1-0.2-0.3-0.2-0.5
			c0-0.2,0.1-0.3,0.2-0.5c0.1-0.1,0.2-0.2,0.4-0.2c0.2,0,0.3,0.1,0.4,0.2c0.1,0.1,0.2,0.3,0.2,0.5H18c0,0.2,0,0.3,0.1,0.4
			s0.2,0.1,0.3,0.1C18.5,8.5,18.6,8.4,18.7,8.2z M18.7,7.9c0-0.1,0-0.1,0-0.2s-0.1-0.1-0.1-0.1s-0.1-0.1-0.2-0.1
			c-0.1,0-0.2,0-0.2,0.1C18,7.7,18,7.7,18,7.9H18.7z"/>
		<path d="M20.3,8.6h-0.2V7.8c0-0.1,0-0.2-0.1-0.2c-0.1,0-0.1-0.1-0.2-0.1c-0.1,0-0.2,0-0.2,0.1c-0.1,0.1-0.1,0.2-0.1,0.3v0.7h-0.2
			V7.4h0.2v0.2c0.1-0.2,0.2-0.3,0.4-0.3c0.1,0,0.2,0,0.2,0.1c0.1,0,0.1,0.1,0.1,0.2c0,0.1,0,0.2,0,0.3V8.6z"/>
		<path d="M21.6,8.2l0.2,0c0,0.1-0.1,0.2-0.2,0.3c-0.1,0.1-0.2,0.1-0.3,0.1c-0.2,0-0.3-0.1-0.4-0.2c-0.1-0.1-0.2-0.3-0.2-0.5
			c0-0.2,0.1-0.3,0.2-0.5c0.1-0.1,0.2-0.2,0.4-0.2c0.2,0,0.3,0.1,0.4,0.2c0.1,0.1,0.2,0.3,0.2,0.5h-0.9c0,0.2,0,0.3,0.1,0.4
			s0.2,0.1,0.3,0.1C21.4,8.5,21.5,8.4,21.6,8.2z M21.6,7.9c0-0.1,0-0.1,0-0.2s-0.1-0.1-0.1-0.1s-0.1-0.1-0.2-0.1
			c-0.1,0-0.2,0-0.2,0.1c-0.1,0.1-0.1,0.2-0.1,0.3H21.6z"/>
		<path d="M22.3,8.6h-0.2V7.4h0.2v0.3c0.1-0.1,0.1-0.2,0.2-0.3c0.1,0,0.1-0.1,0.2-0.1c0,0,0,0,0.1,0v0.2h0c-0.1,0-0.2,0-0.3,0.1
			s-0.1,0.2-0.1,0.3V8.6z"/>
		<path d="M24.1,8.6h-0.2c0,0,0-0.1,0-0.2c-0.1,0.2-0.2,0.2-0.4,0.2c-0.1,0-0.2,0-0.3-0.1C23,8.4,23,8.4,23,8.3C23,8.1,23,8,23.1,8
			c0.1-0.1,0.3-0.1,0.5-0.1c0,0,0.1,0,0.2,0c0-0.1,0-0.2,0-0.2c0,0,0-0.1-0.1-0.1c0,0-0.1,0-0.2,0c-0.2,0-0.3,0.1-0.3,0.2l-0.2,0
			c0-0.2,0.2-0.3,0.6-0.3c0.2,0,0.3,0,0.4,0.1C24,7.5,24,7.7,24,7.8v0.5C24,8.4,24,8.5,24.1,8.6z M23.8,8c-0.1,0-0.1,0-0.2,0
			c-0.2,0-0.3,0-0.4,0.1c-0.1,0-0.1,0.1-0.1,0.2c0,0.1,0,0.1,0.1,0.2c0,0,0.1,0.1,0.2,0.1c0.1,0,0.2,0,0.3-0.1
			C23.8,8.3,23.8,8.2,23.8,8C23.8,8,23.8,8,23.8,8z"/>
		<path d="M25.5,8.6h-0.2V7.8c0-0.1,0-0.2-0.1-0.2c-0.1,0-0.1-0.1-0.2-0.1c-0.1,0-0.2,0-0.2,0.1c-0.1,0.1-0.1,0.2-0.1,0.3v0.7h-0.2
			V7.4h0.2v0.2c0.1-0.2,0.2-0.3,0.4-0.3c0.1,0,0.2,0,0.2,0.1s0.1,0.1,0.1,0.2c0,0.1,0,0.2,0,0.3V8.6z"/>
		<path d="M26.9,7v1.6h-0.2V8.4c-0.1,0.2-0.2,0.2-0.4,0.2c-0.1,0-0.3-0.1-0.4-0.2S25.9,8.2,25.9,8c0-0.2,0-0.3,0.1-0.5
			s0.2-0.2,0.4-0.2c0.1,0,0.3,0.1,0.4,0.2V7H26.9z M26.7,7.8c0-0.1,0-0.2-0.1-0.3c-0.1-0.1-0.1-0.1-0.2-0.1c-0.1,0-0.2,0-0.2,0.1
			c-0.1,0.1-0.1,0.2-0.1,0.3c0,0.2,0,0.3,0.1,0.4c0.1,0.1,0.1,0.1,0.2,0.1c0.1,0,0.2,0,0.2-0.1c0.1-0.1,0.1-0.2,0.1-0.3V7.8z"/>
		<path d="M27.9,8.6c-0.2,0-0.3-0.1-0.4-0.2c-0.1-0.1-0.1-0.3-0.1-0.5c0-0.2,0.1-0.3,0.2-0.5s0.2-0.2,0.4-0.2c0.2,0,0.3,0.1,0.4,0.2
			c0.1,0.1,0.1,0.3,0.1,0.5c0,0.2-0.1,0.3-0.2,0.5C28.2,8.6,28,8.6,27.9,8.6z M27.9,8.5c0.1,0,0.2,0,0.2-0.1s0.1-0.2,0.1-0.4
			c0-0.2,0-0.3-0.1-0.4S28,7.5,27.9,7.5c-0.1,0-0.2,0-0.2,0.1c-0.1,0.1-0.1,0.2-0.1,0.4c0,0.2,0,0.3,0.1,0.4
			C27.7,8.4,27.8,8.5,27.9,8.5z"/>
		<path d="M29.6,8.6V7h0.7c0.2,0,0.3,0,0.4,0.1c0.1,0.1,0.1,0.2,0.1,0.3c0,0.2-0.1,0.3-0.3,0.4c0.1,0,0.2,0.1,0.3,0.2
			C30.8,8,30.8,8,30.8,8.1c0,0.1,0,0.2-0.1,0.3c-0.1,0.1-0.2,0.1-0.4,0.1H29.6z M29.8,7.7h0.4c0.2,0,0.3,0,0.3-0.1
			c0.1-0.1,0.1-0.1,0.1-0.2c0-0.1,0-0.1-0.1-0.2s-0.1-0.1-0.2-0.1h-0.4V7.7z M29.8,8.4h0.5c0.1,0,0.2,0,0.3-0.1
			c0.1-0.1,0.1-0.1,0.1-0.2c0-0.1,0-0.1,0-0.2s-0.1-0.1-0.1-0.1c0,0-0.1,0-0.2,0h-0.4V8.4z"/>
		<path d="M32,8.2l0.2,0c0,0.1-0.1,0.2-0.2,0.3c-0.1,0.1-0.2,0.1-0.3,0.1c-0.2,0-0.3-0.1-0.4-0.2c-0.1-0.1-0.2-0.3-0.2-0.5
			c0-0.2,0.1-0.3,0.2-0.5c0.1-0.1,0.2-0.2,0.4-0.2c0.2,0,0.3,0.1,0.4,0.2c0.1,0.1,0.2,0.3,0.2,0.5h-0.9c0,0.2,0,0.3,0.1,0.4
			s0.2,0.1,0.3,0.1C31.8,8.5,31.9,8.4,32,8.2z M32,7.9c0-0.1,0-0.1,0-0.2s-0.1-0.1-0.1-0.1s-0.1-0.1-0.2-0.1c-0.1,0-0.2,0-0.2,0.1
			c-0.1,0.1-0.1,0.2-0.1,0.3H32z"/>
		<path d="M33.6,8.6h-0.2V7.8c0-0.1,0-0.2-0.1-0.2c-0.1,0-0.1-0.1-0.2-0.1c-0.1,0-0.2,0-0.2,0.1c-0.1,0.1-0.1,0.2-0.1,0.3v0.7h-0.2
			V7.4h0.2v0.2c0.1-0.2,0.2-0.3,0.4-0.3c0.1,0,0.2,0,0.2,0.1c0.1,0,0.1,0.1,0.1,0.2c0,0.1,0,0.2,0,0.3V8.6z"/>
		<path d="M34.9,8.2l0.2,0c0,0.1-0.1,0.2-0.2,0.3c-0.1,0.1-0.2,0.1-0.3,0.1c-0.2,0-0.3-0.1-0.4-0.2C34,8.3,33.9,8.2,33.9,8
			c0-0.2,0.1-0.3,0.2-0.5c0.1-0.1,0.2-0.2,0.4-0.2c0.2,0,0.3,0.1,0.4,0.2C35,7.6,35.1,7.8,35.1,8h-0.9c0,0.2,0,0.3,0.1,0.4
			c0.1,0.1,0.2,0.1,0.3,0.1C34.7,8.5,34.8,8.4,34.9,8.2z M34.9,7.9c0-0.1,0-0.1,0-0.2c0-0.1-0.1-0.1-0.1-0.1c-0.1,0-0.1-0.1-0.2-0.1
			c-0.1,0-0.2,0-0.2,0.1c-0.1,0.1-0.1,0.2-0.1,0.3H34.9z"/>
		<path d="M36,7.4v0.1h-0.3v1.1h-0.2V7.5h-0.2V7.4h0.2c0-0.2,0-0.3,0.1-0.4c0.1-0.1,0.2-0.1,0.3-0.1c0.1,0,0.1,0,0.2,0v0.1
			c0,0-0.1,0-0.1,0c-0.1,0-0.1,0-0.2,0.1s-0.1,0.1-0.1,0.2v0H36z"/>
		<path d="M36.5,7v0.2h-0.2V7H36.5z M36.5,7.4v1.2h-0.2V7.4H36.5z"/>
		<path d="M37.7,8.2l0.2,0c0,0.1-0.1,0.2-0.2,0.3s-0.2,0.1-0.3,0.1c-0.2,0-0.3-0.1-0.4-0.2c-0.1-0.1-0.1-0.3-0.1-0.4
			c0-0.2,0-0.3,0.1-0.5c0.1-0.1,0.2-0.2,0.4-0.2c0.1,0,0.2,0,0.3,0.1s0.1,0.2,0.2,0.3l-0.2,0c0-0.2-0.1-0.3-0.3-0.3
			c-0.1,0-0.2,0-0.2,0.1c-0.1,0.1-0.1,0.2-0.1,0.3c0,0.2,0,0.3,0.1,0.4c0.1,0.1,0.1,0.1,0.2,0.1C37.6,8.5,37.7,8.4,37.7,8.2z"/>
		<path d="M38.5,7v0.2h-0.2V7H38.5z M38.5,7.4v1.2h-0.2V7.4H38.5z"/>
		<path d="M39.4,8.6c-0.2,0-0.3-0.1-0.4-0.2c-0.1-0.1-0.1-0.3-0.1-0.5c0-0.2,0.1-0.3,0.2-0.5c0.1-0.1,0.2-0.2,0.4-0.2
			c0.2,0,0.3,0.1,0.4,0.2C39.9,7.6,40,7.8,40,8c0,0.2-0.1,0.3-0.2,0.5C39.7,8.6,39.5,8.6,39.4,8.6z M39.4,8.5c0.1,0,0.2,0,0.2-0.1
			s0.1-0.2,0.1-0.4c0-0.2,0-0.3-0.1-0.4s-0.2-0.1-0.2-0.1c-0.1,0-0.2,0-0.2,0.1S39,7.8,39,8c0,0.2,0,0.3,0.1,0.4S39.3,8.5,39.4,8.5z
			"/>
		<path d="M40.2,8.3l0.2,0c0,0.2,0.2,0.2,0.4,0.2c0.1,0,0.1,0,0.2-0.1C41,8.4,41,8.3,41,8.3c0-0.1-0.1-0.2-0.2-0.2l-0.3,0
			c-0.1,0-0.2-0.1-0.2-0.1c-0.1-0.1-0.1-0.1-0.1-0.2c0-0.1,0-0.2,0.1-0.3s0.2-0.1,0.3-0.1c0.3,0,0.4,0.1,0.5,0.3l-0.2,0
			c-0.1-0.1-0.2-0.2-0.3-0.2c-0.1,0-0.1,0-0.2,0c-0.1,0-0.1,0.1-0.1,0.1c0,0.1,0.1,0.1,0.2,0.2l0.2,0c0.3,0,0.4,0.2,0.4,0.4
			c0,0.1,0,0.2-0.1,0.3c-0.1,0.1-0.2,0.1-0.4,0.1C40.4,8.6,40.2,8.5,40.2,8.3z"/>
	</g>
</g>
</svg>
